<?xml version="1.0" standalone="no"?>
<!DOCTYPE svg PUBLIC "-//W3C//DTD SVG 20010904//EN"
 "http://www.w3.org/TR/2001/REC-SVG-20010904/DTD/svg10.dtd">
<svg version="1.0" xmlns="http://www.w3.org/2000/svg"
 width="700.000000pt" height="700.000000pt" viewBox="0 0 700.000000 700.000000"
 preserveAspectRatio="xMidYMid meet">
<metadata>
Created by potrace 1.14, written by Peter Selinger 2001-2017
</metadata>
<g transform="translate(0.000000,700.000000) scale(0.100000,-0.100000)"
fill="#000000" stroke="none">
<path d="M3610 6992 c0 -6 -20 -52 -44 -104 -24 -51 -60 -131 -81 -178 -21
-47 -55 -121 -75 -165 -21 -44 -83 -181 -140 -305 -145 -319 -146 -322 -445
-975 -15 -33 -43 -93 -61 -133 -19 -41 -34 -75 -34 -77 0 -1 -20 -45 -44 -96
-24 -52 -90 -195 -146 -319 -118 -261 -140 -309 -187 -407 l-34 -73 -669 0
c-651 0 -670 -1 -680 -19 -14 -28 -3 -48 33 -61 37 -13 404 -138 617 -210 80
-27 345 -117 590 -201 245 -83 461 -156 480 -161 64 -18 90 -37 90 -63 0 -13
-5 -27 -12 -31 -7 -4 -489 -8 -1072 -8 -584 -1 -1067 -5 -1073 -9 -24 -15 -15
-57 15 -68 22 -9 814 -279 1112 -379 47 -15 299 -101 560 -190 261 -89 503
-170 537 -181 58 -18 93 -40 93 -58 0 -4 -6 -15 -13 -25 -13 -18 -71 -19
-1458 -18 -958 0 -1448 -4 -1456 -10 -17 -14 -16 -43 0 -57 12 -9 517 -183
1097 -378 91 -30 171 -60 178 -65 20 -17 14 -43 -28 -133 -22 -47 -40 -87 -40
-89 0 -2 -22 -51 -49 -108 -27 -56 -69 -148 -94 -203 -24 -55 -140 -309 -257
-565 -232 -508 -265 -580 -285 -625 -8 -16 -34 -74 -58 -127 -34 -73 -42 -100
-33 -107 15 -13 6362 -15 6370 -2 4 5 -9 42 -28 83 -18 40 -57 125 -85 188
-29 63 -63 138 -76 165 -23 50 -96 210 -287 630 -55 121 -114 252 -132 290
-18 39 -61 133 -96 210 -35 77 -70 147 -79 156 -9 9 -79 38 -156 64 -538 181
-882 297 -895 302 -54 19 -814 277 -852 289 -53 16 -75 43 -59 73 10 18 57 18
1462 18 1544 0 1468 -2 1469 45 0 10 -9 22 -21 29 -18 9 -255 90 -1049 359
-80 27 -338 115 -575 195 -236 81 -485 165 -553 187 -107 36 -123 44 -129 66
-4 17 -1 29 10 37 11 8 295 11 1069 10 579 0 1063 3 1076 7 15 5 22 15 22 33
0 21 -8 29 -37 42 -34 14 -355 127 -493 173 -30 10 -147 51 -260 90 -113 40
-268 94 -345 120 -77 26 -239 83 -360 125 -121 42 -263 92 -315 109 -107 37
-94 21 -184 221 -33 72 -75 164 -94 205 -19 41 -48 104 -64 140 -17 36 -40 88
-53 115 -12 28 -32 73 -45 100 -13 28 -33 73 -46 100 -12 28 -45 99 -73 159
-28 59 -51 110 -51 112 0 2 -16 39 -36 81 -33 71 -260 570 -314 688 -12 28
-42 92 -66 144 -24 51 -44 95 -44 97 0 2 -21 47 -46 101 -25 54 -63 136 -84
183 -21 47 -53 119 -73 160 -19 41 -51 111 -71 155 -20 44 -41 91 -48 104 -14
25 -38 40 -38 23z"/>
</g>
</svg>
